<svg width="46" height="46" viewBox="0 0 46 46" fill="none" xmlns="http://www.w3.org/2000/svg">
<g clip-path="url(#clip0_4_191)">
<path d="M23 46C35.7025 46 46 35.7025 46 23C46 10.2975 35.7025 0 23 0C10.2975 0 0 10.2975 0 23C0 35.7025 10.2975 46 23 46Z" fill="#EDE4DC"/>
<path d="M34.0911 12.9892C32.0162 12.0523 29.8266 11.3842 27.5769 11.0017C27.5564 10.9979 27.5352 11.0005 27.5164 11.0092C27.4975 11.018 27.482 11.0323 27.4719 11.0503C27.1732 11.583 26.902 12.1302 26.6593 12.6897C24.2345 12.3274 21.768 12.3274 19.3432 12.6897C19.0994 12.1288 18.8244 11.5815 18.5194 11.0503C18.5089 11.0327 18.4933 11.0187 18.4745 11.01C18.4558 11.0013 18.4348 10.9984 18.4143 11.0017C16.1654 11.3836 13.9764 12.0517 11.9026 12.9892C11.8848 12.9966 11.8697 13.0093 11.8595 13.0255C7.71106 19.1239 6.57472 25.0722 7.13226 30.9455C7.13385 30.96 7.13838 30.9739 7.14558 30.9866C7.15277 30.9993 7.16249 31.0104 7.17414 31.0193C9.58984 32.7799 12.292 34.1238 15.1654 34.9937C15.1856 34.9997 15.2073 34.9994 15.2274 34.9929C15.2475 34.9864 15.2651 34.974 15.2779 34.9574C15.8948 34.1311 16.4415 33.2561 16.9124 32.3415C16.9188 32.3289 16.9224 32.3152 16.9231 32.3011C16.9237 32.2871 16.9213 32.2731 16.9161 32.26C16.9108 32.2469 16.9028 32.2351 16.8926 32.2253C16.8824 32.2155 16.8701 32.2079 16.8567 32.2031C15.9945 31.8791 15.1598 31.4884 14.3603 31.0347C14.3458 31.0263 14.3336 31.0145 14.3248 31.0004C14.316 30.9863 14.3109 30.9702 14.3099 30.9537C14.3089 30.9372 14.3121 30.9206 14.3192 30.9056C14.3262 30.8906 14.3369 30.8774 14.3503 30.8674C14.5178 30.7444 14.6859 30.6153 14.846 30.4849C14.8602 30.4735 14.8773 30.4661 14.8956 30.4637C14.9138 30.4613 14.9323 30.464 14.9491 30.4714C20.1864 32.8242 25.8568 32.8242 31.0322 30.4714C31.049 30.4635 31.0679 30.4604 31.0865 30.4626C31.1051 30.4647 31.1227 30.4721 31.1372 30.4837C31.2972 30.6135 31.4653 30.7438 31.6372 30.8674C31.6507 30.8774 31.6615 30.8904 31.6686 30.9054C31.6757 30.9204 31.679 30.9368 31.6782 30.9534C31.6773 30.9699 31.6723 30.986 31.6636 31.0001C31.655 31.0143 31.6429 31.0262 31.6285 31.0347C30.83 31.4928 29.9936 31.8836 29.1283 32.2031C29.1148 32.2081 29.1025 32.2159 29.0923 32.2259C29.0821 32.2359 29.0741 32.2479 29.069 32.2612C29.0639 32.2744 29.0616 32.2886 29.0625 32.3027C29.0633 32.3169 29.0672 32.3307 29.0739 32.3433C29.5526 33.253 30.0985 34.1269 30.7071 34.958C30.7195 34.9752 30.737 34.988 30.7572 34.9947C30.7774 35.0015 30.7993 35.0018 30.8196 34.9955C33.6969 34.1282 36.4026 32.7841 38.8202 31.0212C38.8321 31.0127 38.8419 31.0019 38.8492 30.9894C38.8564 30.9768 38.8608 30.9629 38.8621 30.9486C39.5297 24.1572 37.7445 18.2574 34.1305 13.028C34.1224 13.0109 34.1085 12.9972 34.0911 12.9892ZM17.6937 27.3696C16.1167 27.3696 14.8185 25.9454 14.8185 24.1965C14.8185 22.4476 16.0923 21.0234 17.6937 21.0234C19.3082 21.0234 20.5951 22.4599 20.5689 24.1965C20.5701 25.9454 19.2957 27.3696 17.6937 27.3696ZM28.3276 27.3696C26.7506 27.3696 25.4524 25.9454 25.4524 24.1965C25.4524 22.4476 26.7262 21.0234 28.3276 21.0234C29.9421 21.0234 31.229 22.4599 31.2028 24.1965C31.2034 25.9454 29.9421 27.3696 28.3276 27.3696Z" fill="#222222"/>
</g>
<defs>
<clipPath id="clip0_4_191">
<rect width="46" height="46" fill="white"/>
</clipPath>
</defs>
</svg>
