<svg width="46" height="46" viewBox="0 0 46 46" fill="none" xmlns="http://www.w3.org/2000/svg">
<circle cx="23" cy="23" r="23" fill="#EDE4DC"/>
<path d="M8.36365 19.1429L22.4245 26.3011C22.7399 26.4616 23.1111 26.4616 23.4264 26.3011L32.9552 21.4514C33.6704 21.7155 34.4421 21.8595 35.2468 21.8595C36.0331 21.8595 36.7878 21.722 37.4891 21.4694L37.487 30.9835C37.487 33.503 35.4811 35.5455 33.0066 35.5455H12.8444C10.3699 35.5455 8.36365 33.503 8.36365 30.9835V19.1429ZM12.8444 12.7356L28.9099 12.7314C28.6614 13.446 28.5261 14.2152 28.5261 15.0165C28.5261 17.0074 29.3611 18.7997 30.6939 20.0502L22.9255 24.0059L8.41348 16.6165C8.7364 14.42 10.5972 12.7356 12.8444 12.7356ZM35.2468 10.4546C37.7213 10.4546 39.7273 12.497 39.7273 15.0165C39.7273 17.5361 37.7213 19.5785 35.2468 19.5785C32.7723 19.5785 30.7663 17.5361 30.7663 15.0165C30.7663 12.497 32.7723 10.4546 35.2468 10.4546Z" fill="#222222"/>
</svg>
