<svg width="46" height="46" viewBox="0 0 46 46" fill="none" xmlns="http://www.w3.org/2000/svg">
<circle cx="23" cy="23" r="23" fill="#EDE4DC"/>
<path d="M22.7633 8.36365C19.5 8.36752 16.3715 9.66556 14.064 11.973C11.7565 14.2805 10.4585 17.409 10.4546 20.6723C10.4546 31.2042 21.6443 39.1594 22.1207 39.4926C22.3091 39.6242 22.5334 39.6948 22.7633 39.6948C22.9931 39.6948 23.2174 39.6242 23.4058 39.4926C23.8822 39.1594 35.0719 31.2042 35.0719 20.6723C35.0681 17.409 33.77 14.2805 31.4625 11.973C29.155 9.66556 26.0265 8.36752 22.7633 8.36365ZM22.7641 16.1968C23.6493 16.1968 24.5147 16.4593 25.2507 16.9512C25.9868 17.443 26.5605 18.142 26.8992 18.9599C27.238 19.7777 27.3267 20.6777 27.154 21.5459C26.9812 22.4142 26.555 23.2117 25.929 23.8376C25.303 24.4636 24.5055 24.8899 23.6373 25.0626C22.769 25.2353 21.8691 25.1467 21.0512 24.8079C20.2334 24.4691 19.5343 23.8954 19.0425 23.1594C18.5507 22.4233 18.2882 21.558 18.2882 20.6727C18.2882 20.0849 18.4039 19.5029 18.6289 18.9599C18.8538 18.4168 19.1835 17.9234 19.5991 17.5078C20.0147 17.0921 20.5082 16.7624 21.0512 16.5375C21.5943 16.3126 22.1763 16.1968 22.7641 16.1968Z" fill="#222222"/>
</svg>
