<svg width="46" height="46" viewBox="0 0 46 46" fill="none" xmlns="http://www.w3.org/2000/svg">
<path d="M23 0C10.2974 0 0 10.2974 0 23C0 35.7026 10.2974 46 23 46C35.7026 46 46 35.7026 46 23C46 10.2974 35.7026 0 23 0ZM14.7344 9.13598C15.2083 9.10804 15.6366 9.39128 15.9613 9.89403L19.1058 15.8574C19.4369 16.564 19.2488 17.3206 18.7549 17.8255L17.3146 19.2658C17.2257 19.3877 17.1672 19.5249 17.1658 19.6757C17.7181 21.8138 19.3936 23.7859 20.8719 25.1422C22.3501 26.4984 23.9389 28.3346 26.0013 28.7696C26.2563 28.8407 26.5686 28.8662 26.751 28.6967L28.4243 26.9925C29.0019 26.5547 29.8375 26.3425 30.4542 26.7005H30.4823L36.1564 30.05C36.9893 30.572 37.0756 31.5811 36.4793 32.195L32.5712 36.0723C31.994 36.6641 31.2273 36.8631 30.4824 36.864C27.1877 36.7653 24.0746 35.1483 21.5177 33.4865C17.3205 30.4331 13.4706 26.646 11.0536 22.0707C10.1266 20.1521 9.0377 17.7041 9.14162 15.5627C9.1509 14.7571 9.36886 13.9678 9.93619 13.4486L13.8444 9.54036C14.1488 9.28131 14.45 9.15277 14.7344 9.13598Z" fill="#EDE4DC"/>
</svg>
